<?xml version="1.0" encoding="UTF-8"?>
<svg id="Layer_1" xmlns="http://www.w3.org/2000/svg" version="1.1" viewBox="0 0 600 150">
  <!-- Generator: Adobe Illustrator 29.8.2, SVG Export Plug-In . SVG Version: 2.1.1 Build 3)  -->
  <defs>
    <style>
      .st0 {
        fill: #0019ff;
      }
    </style>
  </defs>
  <g>
    <rect class="st0" x="28.95" y="18.84" width="28.08" height="28.08"/>
    <rect class="st0" x="57.03" y="18.84" width="28.08" height="28.08"/>
    <path class="st0" d="M85.11,18.84h0c15.5,0,28.08,12.58,28.08,28.08h-28.08v-28.08h0Z"/>
    <rect class="st0" x="85.11" y="46.92" width="28.08" height="28.08"/>
    <rect class="st0" x="57.03" y="75" width="28.08" height="28.08"/>
    <rect class="st0" x="85.11" y="103.08" width="28.08" height="28.08"/>
    <rect class="st0" x="28.95" y="103.08" width="28.08" height="28.08"/>
    <polygon class="st0" points="113.19 103.08 85.11 103.08 85.11 75 113.19 103.08"/>
    <polygon class="st0" points="85.11 131.16 57.03 103.08 85.11 103.08 85.11 131.16"/>
  </g>
  <g>
    <path class="st0" d="M152.87,115.69V33.93h41.38c8.61,0,15.36,1.97,20.24,5.9,4.88,3.94,7.32,9.4,7.32,16.4,0,4.17-.96,7.77-2.88,10.8-1.92,3.03-4.69,5.28-8.33,6.76v.4c3.57,0,6.32.96,8.28,2.88,1.95,1.92,2.93,4.73,2.93,8.43v30.18h-15.34v-31.9h-38.15v31.9h-15.44ZM168.31,70.67h24.83c4.3,0,7.64-1.03,9.99-3.08,2.35-2.05,3.53-4.93,3.53-8.63s-1.18-6.68-3.53-8.73c-2.36-2.05-5.69-3.08-9.99-3.08h-24.83v23.52Z"/>
    <path class="st0" d="M250.88,116.8c-7.07,0-12.6-1.71-16.6-5.15-4-3.43-6.01-7.97-6.01-13.63s2.03-10.5,6.11-13.73c4.07-3.23,9.94-4.85,17.61-4.85h18.47v-2.42c0-7.4-4.31-11.1-12.92-11.1-7.33,0-11.74,2.62-13.22,7.87h-15.04c1.28-6.46,4.34-11.39,9.19-14.79,4.84-3.4,11.2-5.1,19.08-5.1,8.88,0,15.65,2,20.29,6.01,4.64,4,6.96,9.84,6.96,17.51v23.22h7.17v15.04h-15.44v-9.69h-4.24c-2.09,3.43-4.89,6.09-8.43,7.97s-7.86,2.83-12.97,2.83ZM253.1,105.19c3.3,0,6.26-.62,8.88-1.87s4.69-2.93,6.21-5.05c1.51-2.12,2.27-4.49,2.27-7.12v-1.41h-17.66c-6.8,0-10.2,2.52-10.2,7.57,0,2.49.92,4.43,2.78,5.8,1.85,1.38,4.42,2.07,7.72,2.07Z"/>
    <rect class="st0" x="298.72" y="55.12" width="15.04" height="60.56"/>
    <path class="st0" d="M327.28,115.69v-45.53h-7.47v-15.04h15.44v9.69h4.24c2.29-3.43,5.21-6.09,8.78-7.97,3.57-1.88,7.94-2.82,13.12-2.82,8.28,0,14.69,2.29,19.23,6.86,4.54,4.58,6.81,10.67,6.81,18.27v36.54h-15.04v-33.71c0-4.78-1.26-8.41-3.79-10.9-2.52-2.49-6.28-3.74-11.26-3.74s-8.56,1.25-11.15,3.74c-2.59,2.49-3.89,6.12-3.89,10.9v33.71h-15.04Z"/>
    <path class="st0" d="M421.86,116.8c-8.28,0-14.65-2.2-19.13-6.61-4.48-4.41-6.71-10.38-6.71-17.92v-37.15h15.04v34.12c0,4.71,1.21,8.26,3.63,10.65,2.42,2.39,6.02,3.58,10.8,3.58,5.05,0,8.92-1.28,11.61-3.83s4.04-6.16,4.04-10.8v-33.71h15.04v45.52h7.57v15.04h-15.44v-9.69h-4.24c-2.36,3.5-5.3,6.18-8.83,8.03-3.53,1.85-7.99,2.77-13.37,2.77Z"/>
    <path class="st0" d="M471.22,115.69v-45.53h-7.47v-15.04h15.44v9.69h4.54c2.02-3.43,4.73-6.09,8.13-7.97,3.4-1.88,7.59-2.82,12.57-2.82s8.88.89,12.31,2.67,6.19,4.43,8.28,7.92h.31c4.51-7.06,11.44-10.6,20.79-10.6,7.74,0,13.83,2.24,18.27,6.71,4.44,4.48,6.66,10.55,6.66,18.22v36.74h-15.04v-34.02c0-9.55-4.58-14.33-13.73-14.33s-13.63,4.78-13.63,14.33v34.02h-15.04v-34.02c0-9.55-4.61-14.33-13.83-14.33-4.44,0-7.81,1.2-10.09,3.58-2.29,2.39-3.43,5.97-3.43,10.75v34.02h-15.04Z"/>
    <rect class="st0" x="298.72" y="33.2" width="15.04" height="15.04"/>
  </g>
</svg>