<svg width="669" height="159" viewBox="0 0 669 159" fill="none" xmlns="http://www.w3.org/2000/svg">
<path d="M143.75 133V53.5H149.6L150.5 76.75L148.85 75.85C150.45 68.45 152.95 62.9 156.35 59.2C159.85 55.4 164.8 53.5 171.2 53.5H186.05V60.25H170.6C166.6 60.25 163.1 61.35 160.1 63.55C157.2 65.65 154.95 68.5 153.35 72.1C151.75 75.7 150.95 79.75 150.95 84.25V133H143.75ZM121.55 133V126.55H177.05V133H121.55ZM121.55 59.95V53.5H147.5V59.95H121.55ZM231.891 134.8C226.791 134.8 222.291 133.95 218.391 132.25C214.491 130.45 211.441 127.95 209.241 124.75C207.141 121.45 206.091 117.65 206.091 113.35C206.091 107.15 208.241 102.2 212.541 98.5C216.941 94.8 222.941 92.25 230.541 90.85L260.091 85C260.091 75.8 258.291 69.15 254.691 65.05C251.091 60.85 245.741 58.75 238.641 58.75C232.041 58.75 226.741 60.4 222.741 63.7C218.841 66.9 216.341 71.55 215.241 77.65L207.441 77.05C208.841 69.15 212.191 62.95 217.491 58.45C222.891 53.95 229.941 51.7 238.641 51.7C247.741 51.7 254.791 54.45 259.791 59.95C264.791 65.35 267.291 73.4 267.291 84.1V117.55C267.291 121.05 267.841 123.4 268.941 124.6C270.041 125.7 271.641 126.25 273.741 126.25H278.391V133C277.991 133.1 277.191 133.15 275.991 133.15C274.791 133.25 273.741 133.3 272.841 133.3C270.141 133.3 267.791 132.8 265.791 131.8C263.891 130.7 262.441 128.9 261.441 126.4C260.441 123.8 259.941 120.15 259.941 115.45H261.591C260.491 118.85 258.541 122.05 255.741 125.05C253.041 128.05 249.641 130.45 245.541 132.25C241.441 133.95 236.891 134.8 231.891 134.8ZM232.191 128.05C237.991 128.05 242.941 126.95 247.041 124.75C251.241 122.45 254.441 119.35 256.641 115.45C258.941 111.55 260.091 107.1 260.091 102.1V91.45L232.191 97C226.191 98.2 221.591 100.05 218.391 102.55C215.191 105.05 213.591 108.45 213.591 112.75C213.591 117.65 215.191 121.45 218.391 124.15C221.691 126.75 226.291 128.05 232.191 128.05ZM333.533 133V53.5H340.733V133H333.533ZM300.833 133V126.55H368.933V133H300.833ZM302.333 59.95V53.5H340.733V59.95H302.333ZM332.933 39.55V27.7H340.733V39.55H332.933ZM391.374 133V53.5H398.124L398.424 74.8L397.374 74.35C398.074 69.35 399.774 65.2 402.474 61.9C405.174 58.5 408.524 55.95 412.524 54.25C416.524 52.55 420.774 51.7 425.274 51.7C431.274 51.7 436.274 53.05 440.274 55.75C444.274 58.45 447.274 62.1 449.274 66.7C451.274 71.2 452.274 76.25 452.274 81.85V133H445.074V85.45C445.074 77.25 443.374 70.7 439.974 65.8C436.674 60.9 431.274 58.45 423.774 58.45C418.674 58.45 414.224 59.6 410.424 61.9C406.724 64.1 403.824 67.25 401.724 71.35C399.624 75.35 398.574 80.05 398.574 85.45V133H391.374ZM507.266 134.8C499.366 134.8 493.066 132.15 488.366 126.85C483.666 121.45 481.316 114.05 481.316 104.65V53.5H488.516V102.25C488.516 110.85 490.266 117.3 493.766 121.6C497.366 125.9 502.516 128.05 509.216 128.05C516.616 128.05 522.466 125.65 526.766 120.85C531.166 115.95 533.366 109.35 533.366 101.05V53.5H540.566V133H533.966L533.666 112L534.866 112.3C533.766 119.4 530.766 124.95 525.866 128.95C521.066 132.85 514.866 134.8 507.266 134.8ZM563.757 133V53.5H570.357L570.657 74.35L569.457 74.05C570.557 66.85 572.557 61.35 575.457 57.55C578.457 53.65 582.407 51.7 587.307 51.7C592.507 51.7 596.457 53.75 599.157 57.85C601.857 61.95 603.507 68.05 604.107 76.15H602.457C603.557 68.15 605.757 62.1 609.057 58C612.357 53.8 616.607 51.7 621.807 51.7C627.907 51.7 632.407 53.95 635.307 58.45C638.207 62.85 639.657 70.05 639.657 80.05V133H632.457V80.8C632.457 72.7 631.457 66.95 629.457 63.55C627.457 60.15 624.357 58.45 620.157 58.45C617.457 58.45 614.957 59.45 612.657 61.45C610.457 63.35 608.657 66.1 607.257 69.7C605.957 73.3 605.307 77.45 605.307 82.15V133H598.107V82C598.107 74.3 597.057 68.45 594.957 64.45C592.957 60.45 589.807 58.45 585.507 58.45C582.807 58.45 580.357 59.45 578.157 61.45C575.957 63.45 574.207 66.25 572.907 69.85C571.607 73.35 570.957 77.45 570.957 82.15V133H563.757Z" fill="black"/>
<g clip-path="url(#clip0_1186_4)">
<path d="M5.26144 99.4929C3.09162 97.3227 1.63646 94.8165 0.895971 91.9746C0.172698 89.1153 0.172696 86.256 0.895971 83.3969C1.63646 80.5204 3.08299 78.0057 5.23559 75.8527C7.42262 73.6652 9.94549 72.2097 12.8041 71.4863C15.6628 70.7629 18.5214 70.7629 21.38 71.4863C24.2388 72.2097 26.753 73.6565 28.9229 75.8268L34.2957 81.2008L42.2517 73.2432L36.8787 67.8692C34.7088 65.699 33.2537 63.1928 32.5132 60.3509C31.79 57.4916 31.7815 54.641 32.4875 51.799C33.2108 48.9398 34.666 46.4164 36.8531 44.229C39.0228 42.0587 41.537 40.6119 44.3957 39.8885C47.2543 39.1651 50.1043 39.1737 52.9457 39.9143C55.8043 40.6377 58.3186 42.0846 60.4886 44.2548C62.6583 46.4251 64.1049 48.9398 64.8282 51.799C65.5686 54.641 65.5771 57.4916 64.8539 60.3509C64.1478 63.2273 62.71 65.7507 60.5401 67.921L55.193 73.2691L63.1232 81.2008L68.4703 75.8527C70.64 73.6824 73.1457 72.2269 75.9873 71.4863C78.8459 70.7629 81.6958 70.7714 84.5372 71.5122C87.3958 72.2356 89.9187 73.6911 92.1058 75.8785C94.2757 78.0488 95.7222 80.5635 96.4454 83.4227C97.1859 86.2647 97.1859 89.1066 96.4454 91.9487C95.7222 94.8078 94.2757 97.3227 92.1058 99.4929C89.9187 101.68 87.3958 103.136 84.5372 103.859C81.6958 104.565 78.8459 104.557 75.9873 103.833C73.163 103.11 70.6659 101.663 68.4962 99.4929L63.1491 94.1446L55.193 102.102L60.5401 107.451C62.71 109.621 64.1478 112.127 64.8539 114.969C65.5771 117.828 65.5771 120.687 64.8539 123.547C64.1306 126.406 62.6755 128.929 60.4886 131.116C58.336 133.27 55.8217 134.716 52.9457 135.457C50.0871 136.18 47.2285 136.18 44.3699 135.457C41.5456 134.734 39.0485 133.287 36.8787 131.116C34.6917 128.929 33.228 126.414 32.4875 123.572C31.7643 120.713 31.7643 117.854 32.4875 114.995C33.2452 112.135 34.7003 109.629 36.8531 107.476L42.2517 102.077L34.3215 94.1446L28.9229 99.5445C26.7702 101.698 24.2473 103.136 21.3543 103.859C18.4955 104.583 15.637 104.583 12.7783 103.859C9.9369 103.119 7.43127 101.663 5.26144 99.4929ZM11.7192 93.0337C12.7008 94.0155 13.8374 94.6702 15.1289 94.9974C16.4377 95.3418 17.7379 95.3505 19.0294 95.0233C20.321 94.6958 21.4576 94.0414 22.4392 93.0596L27.8378 87.6598L22.4651 82.2858C21.4833 81.3041 20.3382 80.6582 19.0294 80.3482C17.7379 80.0209 16.4463 80.0209 15.1548 80.3482C13.8632 80.6754 12.718 81.3386 11.7192 82.3375C10.7376 83.3193 10.0747 84.4475 9.73023 85.7222C9.40304 87.014 9.40304 88.3058 9.73023 89.5976C10.0747 90.9066 10.7376 92.052 11.7192 93.0337ZM43.3366 61.41L48.7095 66.784L54.0564 61.4359C55.0554 60.437 55.7097 59.3002 56.0197 58.0256C56.347 56.7338 56.3383 55.4333 55.9939 54.1243C55.6666 52.8325 55.0123 51.6957 54.0307 50.7139C53.049 49.7321 51.9126 49.0776 50.6209 48.7503C49.3293 48.4231 48.0378 48.4231 46.7464 48.7503C45.4719 49.0604 44.3353 49.7149 43.3366 50.7139C42.355 51.6957 41.6835 52.8325 41.3217 54.1243C40.9946 55.4161 40.9946 56.7079 41.3217 57.9997C41.6835 59.2915 42.355 60.4283 43.3366 61.41ZM68.094 87.6856L73.4411 93.0337C74.4227 94.0155 75.5508 94.6787 76.8251 95.0233C78.1165 95.3505 80.9123 95.3418 82.1868 94.9974C83.4782 94.6702 84.6233 94.007 85.6221 93.008C86.621 92.0089 87.2754 90.8722 87.5854 89.5976C87.9298 88.3229 87.9384 87.0398 87.6113 85.7479C87.284 84.4561 86.6295 83.3193 85.648 82.3375C84.6492 81.3386 83.5041 80.6754 82.2125 80.3482C80.9208 80.0209 78.1165 80.0209 76.8251 80.3482C75.568 80.6754 74.4399 81.3386 73.4411 82.3375L68.094 87.6856ZM43.3366 124.657C44.3181 125.639 45.4547 126.294 46.7464 126.621C48.0378 126.948 49.3208 126.94 50.5952 126.595C51.8867 126.268 53.0233 125.613 54.0049 124.632C55.0036 123.633 55.6666 122.487 55.9939 121.195C56.3383 119.921 56.347 118.637 56.0197 117.346C55.7097 116.037 55.0639 114.891 54.0823 113.91L48.7352 108.561L43.3366 113.961C42.355 114.943 41.692 116.071 41.3476 117.346C41.0203 118.637 41.0203 119.929 41.3476 121.221C41.6748 122.513 42.3378 123.659 43.3366 124.657ZM40.7793 87.6856L48.7095 95.6175L56.6654 87.6598L48.7352 79.7281L40.7793 87.6856Z" fill="black"/>
</g>
<rect x="40" y="87.4852" width="12" height="12" transform="rotate(-45 40 87.4852)" fill="white"/>
<defs>
<clipPath id="clip0_1186_4">
<rect width="97" height="97" fill="white" transform="translate(0 39)"/>
</clipPath>
</defs>
</svg>
