<svg width="669" height="159" viewBox="0 0 669 159" fill="none" xmlns="http://www.w3.org/2000/svg">
<path d="M143.75 133V53.5H149.6L150.5 76.75L148.85 75.85C150.45 68.45 152.95 62.9 156.35 59.2C159.85 55.4 164.8 53.5 171.2 53.5H186.05V60.25H170.6C166.6 60.25 163.1 61.35 160.1 63.55C157.2 65.65 154.95 68.5 153.35 72.1C151.75 75.7 150.95 79.75 150.95 84.25V133H143.75ZM121.55 133V126.55H177.05V133H121.55ZM121.55 59.95V53.5H147.5V59.95H121.55ZM231.891 134.8C226.791 134.8 222.291 133.95 218.391 132.25C214.491 130.45 211.441 127.95 209.241 124.75C207.141 121.45 206.091 117.65 206.091 113.35C206.091 107.15 208.241 102.2 212.541 98.5C216.941 94.8 222.941 92.25 230.541 90.85L260.091 85C260.091 75.8 258.291 69.15 254.691 65.05C251.091 60.85 245.741 58.75 238.641 58.75C232.041 58.75 226.741 60.4 222.741 63.7C218.841 66.9 216.341 71.55 215.241 77.65L207.441 77.05C208.841 69.15 212.191 62.95 217.491 58.45C222.891 53.95 229.941 51.7 238.641 51.7C247.741 51.7 254.791 54.45 259.791 59.95C264.791 65.35 267.291 73.4 267.291 84.1V117.55C267.291 121.05 267.841 123.4 268.941 124.6C270.041 125.7 271.641 126.25 273.741 126.25H278.391V133C277.991 133.1 277.191 133.15 275.991 133.15C274.791 133.25 273.741 133.3 272.841 133.3C270.141 133.3 267.791 132.8 265.791 131.8C263.891 130.7 262.441 128.9 261.441 126.4C260.441 123.8 259.941 120.15 259.941 115.45H261.591C260.491 118.85 258.541 122.05 255.741 125.05C253.041 128.05 249.641 130.45 245.541 132.25C241.441 133.95 236.891 134.8 231.891 134.8ZM232.191 128.05C237.991 128.05 242.941 126.95 247.041 124.75C251.241 122.45 254.441 119.35 256.641 115.45C258.941 111.55 260.091 107.1 260.091 102.1V91.45L232.191 97C226.191 98.2 221.591 100.05 218.391 102.55C215.191 105.05 213.591 108.45 213.591 112.75C213.591 117.65 215.191 121.45 218.391 124.15C221.691 126.75 226.291 128.05 232.191 128.05ZM333.533 133V53.5H340.733V133H333.533ZM300.833 133V126.55H368.933V133H300.833ZM302.333 59.95V53.5H340.733V59.95H302.333ZM332.933 39.55V27.7H340.733V39.55H332.933ZM391.374 133V53.5H398.124L398.424 74.8L397.374 74.35C398.074 69.35 399.774 65.2 402.474 61.9C405.174 58.5 408.524 55.95 412.524 54.25C416.524 52.55 420.774 51.7 425.274 51.7C431.274 51.7 436.274 53.05 440.274 55.75C444.274 58.45 447.274 62.1 449.274 66.7C451.274 71.2 452.274 76.25 452.274 81.85V133H445.074V85.45C445.074 77.25 443.374 70.7 439.974 65.8C436.674 60.9 431.274 58.45 423.774 58.45C418.674 58.45 414.224 59.6 410.424 61.9C406.724 64.1 403.824 67.25 401.724 71.35C399.624 75.35 398.574 80.05 398.574 85.45V133H391.374ZM507.266 134.8C499.366 134.8 493.066 132.15 488.366 126.85C483.666 121.45 481.316 114.05 481.316 104.65V53.5H488.516V102.25C488.516 110.85 490.266 117.3 493.766 121.6C497.366 125.9 502.516 128.05 509.216 128.05C516.616 128.05 522.466 125.65 526.766 120.85C531.166 115.95 533.366 109.35 533.366 101.05V53.5H540.566V133H533.966L533.666 112L534.866 112.3C533.766 119.4 530.766 124.95 525.866 128.95C521.066 132.85 514.866 134.8 507.266 134.8ZM563.757 133V53.5H570.357L570.657 74.35L569.457 74.05C570.557 66.85 572.557 61.35 575.457 57.55C578.457 53.65 582.407 51.7 587.307 51.7C592.507 51.7 596.457 53.75 599.157 57.85C601.857 61.95 603.507 68.05 604.107 76.15H602.457C603.557 68.15 605.757 62.1 609.057 58C612.357 53.8 616.607 51.7 621.807 51.7C627.907 51.7 632.407 53.95 635.307 58.45C638.207 62.85 639.657 70.05 639.657 80.05V133H632.457V80.8C632.457 72.7 631.457 66.95 629.457 63.55C627.457 60.15 624.357 58.45 620.157 58.45C617.457 58.45 614.957 59.45 612.657 61.45C610.457 63.35 608.657 66.1 607.257 69.7C605.957 73.3 605.307 77.45 605.307 82.15V133H598.107V82C598.107 74.3 597.057 68.45 594.957 64.45C592.957 60.45 589.807 58.45 585.507 58.45C582.807 58.45 580.357 59.45 578.157 61.45C575.957 63.45 574.207 66.25 572.907 69.85C571.607 73.35 570.957 77.45 570.957 82.15V133H563.757Z" fill="white"/>
<g clip-path="url(#clip0_1193_5)">
<path d="M44.6406 40.8582C47.3365 40.1759 50.0158 40.1837 52.6934 40.8816L52.7002 40.8835C55.3766 41.5609 57.7334 42.9136 59.7812 44.9617C61.829 47.0099 63.1812 49.3675 63.8584 52.0447L63.8604 52.0515C64.558 54.7295 64.5667 57.4087 63.8848 60.1052L63.8828 60.1121C63.2219 62.8045 61.8785 65.1677 59.833 67.2136L54.4863 72.5623L53.7793 73.2693L54.4863 73.9763L62.416 81.908L63.123 82.615L63.8301 81.908L69.1777 76.5593C71.2257 74.5109 73.5739 73.15 76.2324 72.4558C78.9284 71.7735 81.6076 71.7822 84.2852 72.4802L84.292 72.4812C86.9671 73.1582 89.3323 74.5192 91.3984 76.5857C93.4462 78.6338 94.7984 80.9906 95.4756 83.6677L95.4775 83.6746C96.1749 86.3512 96.1749 89.0202 95.4775 91.697L95.4756 91.7039C94.7983 94.3808 93.4462 96.7379 91.3984 98.7859C89.3334 100.851 86.9693 102.211 84.2959 102.888C81.6154 103.554 78.9325 103.547 76.2324 102.864H76.2314C73.5918 102.187 71.252 100.835 69.2031 98.7859L63.8564 93.4373L63.1494 92.7302L62.4414 93.4373L54.4863 101.395L53.7793 102.102L54.4863 102.809L59.833 108.158C61.8807 110.206 63.2237 112.553 63.8838 115.21L63.8848 115.214C64.5673 117.912 64.5673 120.603 63.8848 123.302C63.2079 125.977 61.8472 128.343 59.7812 130.41C57.7529 132.439 55.3966 133.792 52.7002 134.487C50.0026 135.17 47.3118 135.17 44.6143 134.487C41.9747 133.81 39.6348 132.459 37.5859 130.41V130.409L37.2061 130.018C35.3489 128.045 34.1049 125.814 33.4551 123.32C32.7752 120.628 32.7749 117.943 33.4541 115.251C34.1652 112.567 35.5288 110.215 37.5605 108.183L42.959 102.784L43.666 102.077L42.959 101.37L35.0283 93.4373L34.3213 92.7302L33.6143 93.4373L28.2158 98.8376C26.1884 100.865 23.8246 102.211 21.1113 102.889H21.1094C18.4116 103.572 15.7211 103.572 13.0234 102.889C10.365 102.195 8.01683 100.834 5.96875 98.7859C3.91878 96.7355 2.55688 94.3844 1.86328 91.7224C1.18285 89.0278 1.18334 86.3407 1.86426 83.6462C2.55901 80.9475 3.91291 78.5892 5.94238 76.5593C8.00846 74.4929 10.3747 73.1328 13.0498 72.4558C15.7473 71.7732 18.4373 71.7732 21.1348 72.4558C23.8114 73.1332 26.168 74.4858 28.2158 76.5339L33.5889 81.908L34.2959 82.615L35.0029 81.908L42.959 73.95L43.666 73.2429L42.959 72.5359L37.5859 67.1619C35.536 65.1115 34.174 62.7603 33.4805 60.0984C32.7995 57.4015 32.7927 54.7218 33.457 52.0447C34.1339 49.3689 35.4944 47.0028 37.5605 44.9363C39.6081 42.8882 41.9641 41.5355 44.6406 40.8582ZM48.0283 107.854L42.6289 113.255C41.5306 114.353 40.7742 115.633 40.3818 117.085L40.3779 117.1C40.0099 118.553 40.01 120.014 40.3779 121.467C40.7521 122.944 41.5117 124.246 42.6299 125.364C43.7333 126.468 45.0272 127.217 46.501 127.591C47.9571 127.959 49.4147 127.95 50.8564 127.56L50.8555 127.559C52.3229 127.185 53.6123 126.438 54.7119 125.339C55.83 124.22 56.5887 122.918 56.9629 121.441L56.9619 121.44C57.3472 120.004 57.3564 118.553 56.9893 117.102C56.6338 115.612 55.8941 114.308 54.7891 113.203L49.4424 107.854L48.7354 107.147L48.0283 107.854ZM48.0283 79.0212L40.0723 86.9783L39.3652 87.6853L40.0723 88.3923L48.002 96.325L48.71 97.032L49.417 96.325L57.373 88.3669L58.0791 87.6599L57.373 86.9529L49.4424 79.0212L48.7354 78.3132L48.0283 79.0212ZM19.2588 79.3748C17.8115 79.0108 16.3565 79.012 14.9092 79.3787C13.4323 79.7529 12.1299 80.5123 11.0117 81.6306C9.91325 82.7293 9.15701 84.0096 8.76465 85.4617L8.7627 85.4685L8.76074 85.4763C8.39273 86.9293 8.39273 88.3906 8.76074 89.8435L8.7627 89.8523C9.15335 91.3369 9.90837 92.6374 11.0117 93.741C12.1127 94.8421 13.4041 95.5894 14.874 95.9636V95.9646C16.3439 96.3514 17.817 96.3625 19.2754 95.9929C20.749 95.6193 22.0431 94.8699 23.1465 93.7664L28.5449 88.3669L29.252 87.6599L28.5449 86.9529L23.1719 81.5789C22.0635 80.4705 20.755 79.729 19.2598 79.3748H19.2588ZM79.5186 79.1023C78.4676 79.1023 77.3455 79.1845 76.5791 79.3787L76.5732 79.3806C75.1291 79.7566 73.8476 80.5173 72.7344 81.6306L66.6797 87.6853L67.3867 88.3923L72.7344 93.741C73.8329 94.8395 75.1128 95.5964 76.5645 95.989L76.5713 95.991L76.5791 95.9929C77.347 96.1875 78.4684 96.2669 79.5166 96.2625C80.556 96.258 81.6683 96.169 82.4316 95.9656L82.4326 95.9666C83.9092 95.5924 85.2111 94.8337 86.3291 93.7156C87.4414 92.6031 88.1908 91.3139 88.5498 89.8572L88.5508 89.8582C88.916 88.5063 88.947 87.1408 88.6455 85.7751L88.5811 85.5027L88.5059 85.2283C88.1119 83.8676 87.3898 82.6652 86.3555 81.6306C85.2373 80.5123 83.935 79.7529 82.458 79.3787C81.6915 79.1845 80.5695 79.1023 79.5186 79.1023ZM50.8662 47.781C49.5043 47.436 48.136 47.4147 46.7734 47.7166L46.501 47.781C45.0383 48.1386 43.7447 48.8905 42.6289 50.0066C41.5304 51.1054 40.7681 52.3914 40.3584 53.8542L40.3555 53.8669L40.3525 53.8787C39.9847 55.3315 39.9847 56.7921 40.3525 58.2449L40.3555 58.2576L40.3584 58.2693C40.7681 59.7321 41.5305 61.0182 42.6289 62.1169L48.002 67.491L48.71 68.198L49.417 67.491L54.7637 62.1433C55.8798 61.0272 56.6307 59.7332 56.9883 58.2703L56.9893 58.2712C57.3357 56.9037 57.3479 55.5238 57.0293 54.1453L56.9609 53.8699C56.5868 52.3997 55.8394 51.108 54.7383 50.0066C53.6348 48.9031 52.3401 48.1544 50.8662 47.781Z" fill="url(#paint0_radial_1193_5)" stroke="#5DF7A4" stroke-width="2"/>
</g>
<rect x="40" y="87.4854" width="12" height="12" transform="rotate(-45 40 87.4854)" fill="#5DF7A4"/>
<rect x="40" y="87.4854" width="12" height="12" transform="rotate(-45 40 87.4854)" fill="#010BA2"/>
<defs>
<radialGradient id="paint0_radial_1193_5" cx="0" cy="0" r="1" gradientUnits="userSpaceOnUse" gradientTransform="translate(48.6771 87.6759) rotate(90) scale(48.3236 48.3236)">
<stop offset="0.461538" stop-color="#010BA2"/>
<stop offset="0.9999" stop-color="#000544"/>
<stop offset="1" stop-color="#00043C"/>
</radialGradient>
<clipPath id="clip0_1193_5">
<rect width="97" height="97" fill="white" transform="translate(0 39)"/>
</clipPath>
</defs>
</svg>
