<svg width="669" height="159" viewBox="0 0 669 159" fill="none" xmlns="http://www.w3.org/2000/svg">
<mask id="path-1-outside-1_1193_5" maskUnits="userSpaceOnUse" x="120" y="26" width="521" height="110" fill="black">
<rect fill="white" x="120" y="26" width="521" height="110"/>
<path d="M143.75 133V53.5H149.6L150.5 76.75L148.85 75.85C150.45 68.45 152.95 62.9 156.35 59.2C159.85 55.4 164.8 53.5 171.2 53.5H186.05V60.25H170.6C166.6 60.25 163.1 61.35 160.1 63.55C157.2 65.65 154.95 68.5 153.35 72.1C151.75 75.7 150.95 79.75 150.95 84.25V133H143.75ZM121.55 133V126.55H177.05V133H121.55ZM121.55 59.95V53.5H147.5V59.95H121.55ZM231.891 134.8C226.791 134.8 222.291 133.95 218.391 132.25C214.491 130.45 211.441 127.95 209.241 124.75C207.141 121.45 206.091 117.65 206.091 113.35C206.091 107.15 208.241 102.2 212.541 98.5C216.941 94.8 222.941 92.25 230.541 90.85L260.091 85C260.091 75.8 258.291 69.15 254.691 65.05C251.091 60.85 245.741 58.75 238.641 58.75C232.041 58.75 226.741 60.4 222.741 63.7C218.841 66.9 216.341 71.55 215.241 77.65L207.441 77.05C208.841 69.15 212.191 62.95 217.491 58.45C222.891 53.95 229.941 51.7 238.641 51.7C247.741 51.7 254.791 54.45 259.791 59.95C264.791 65.35 267.291 73.4 267.291 84.1V117.55C267.291 121.05 267.841 123.4 268.941 124.6C270.041 125.7 271.641 126.25 273.741 126.25H278.391V133C277.991 133.1 277.191 133.15 275.991 133.15C274.791 133.25 273.741 133.3 272.841 133.3C270.141 133.3 267.791 132.8 265.791 131.8C263.891 130.7 262.441 128.9 261.441 126.4C260.441 123.8 259.941 120.15 259.941 115.45H261.591C260.491 118.85 258.541 122.05 255.741 125.05C253.041 128.05 249.641 130.45 245.541 132.25C241.441 133.95 236.891 134.8 231.891 134.8ZM232.191 128.05C237.991 128.05 242.941 126.95 247.041 124.75C251.241 122.45 254.441 119.35 256.641 115.45C258.941 111.55 260.091 107.1 260.091 102.1V91.45L232.191 97C226.191 98.2 221.591 100.05 218.391 102.55C215.191 105.05 213.591 108.45 213.591 112.75C213.591 117.65 215.191 121.45 218.391 124.15C221.691 126.75 226.291 128.05 232.191 128.05ZM333.533 133V53.5H340.733V133H333.533ZM300.833 133V126.55H368.933V133H300.833ZM302.333 59.95V53.5H340.733V59.95H302.333ZM332.933 39.55V27.7H340.733V39.55H332.933ZM391.374 133V53.5H398.124L398.424 74.8L397.374 74.35C398.074 69.35 399.774 65.2 402.474 61.9C405.174 58.5 408.524 55.95 412.524 54.25C416.524 52.55 420.774 51.7 425.274 51.7C431.274 51.7 436.274 53.05 440.274 55.75C444.274 58.45 447.274 62.1 449.274 66.7C451.274 71.2 452.274 76.25 452.274 81.85V133H445.074V85.45C445.074 77.25 443.374 70.7 439.974 65.8C436.674 60.9 431.274 58.45 423.774 58.45C418.674 58.45 414.224 59.6 410.424 61.9C406.724 64.1 403.824 67.25 401.724 71.35C399.624 75.35 398.574 80.05 398.574 85.45V133H391.374ZM507.266 134.8C499.366 134.8 493.066 132.15 488.366 126.85C483.666 121.45 481.316 114.05 481.316 104.65V53.5H488.516V102.25C488.516 110.85 490.266 117.3 493.766 121.6C497.366 125.9 502.516 128.05 509.216 128.05C516.616 128.05 522.466 125.65 526.766 120.85C531.166 115.95 533.366 109.35 533.366 101.05V53.5H540.566V133H533.966L533.666 112L534.866 112.3C533.766 119.4 530.766 124.95 525.866 128.95C521.066 132.85 514.866 134.8 507.266 134.8ZM563.757 133V53.5H570.357L570.657 74.35L569.457 74.05C570.557 66.85 572.557 61.35 575.457 57.55C578.457 53.65 582.407 51.7 587.307 51.7C592.507 51.7 596.457 53.75 599.157 57.85C601.857 61.95 603.507 68.05 604.107 76.15H602.457C603.557 68.15 605.757 62.1 609.057 58C612.357 53.8 616.607 51.7 621.807 51.7C627.907 51.7 632.407 53.95 635.307 58.45C638.207 62.85 639.657 70.05 639.657 80.05V133H632.457V80.8C632.457 72.7 631.457 66.95 629.457 63.55C627.457 60.15 624.357 58.45 620.157 58.45C617.457 58.45 614.957 59.45 612.657 61.45C610.457 63.35 608.657 66.1 607.257 69.7C605.957 73.3 605.307 77.45 605.307 82.15V133H598.107V82C598.107 74.3 597.057 68.45 594.957 64.45C592.957 60.45 589.807 58.45 585.507 58.45C582.807 58.45 580.357 59.45 578.157 61.45C575.957 63.45 574.207 66.25 572.907 69.85C571.607 73.35 570.957 77.45 570.957 82.15V133H563.757Z"/>
</mask>
<path d="M143.75 133V53.5H149.6L150.5 76.75L148.85 75.85C150.45 68.45 152.95 62.9 156.35 59.2C159.85 55.4 164.8 53.5 171.2 53.5H186.05V60.25H170.6C166.6 60.25 163.1 61.35 160.1 63.55C157.2 65.65 154.95 68.5 153.35 72.1C151.75 75.7 150.95 79.75 150.95 84.25V133H143.75ZM121.55 133V126.55H177.05V133H121.55ZM121.55 59.95V53.5H147.5V59.95H121.55ZM231.891 134.8C226.791 134.8 222.291 133.95 218.391 132.25C214.491 130.45 211.441 127.95 209.241 124.75C207.141 121.45 206.091 117.65 206.091 113.35C206.091 107.15 208.241 102.2 212.541 98.5C216.941 94.8 222.941 92.25 230.541 90.85L260.091 85C260.091 75.8 258.291 69.15 254.691 65.05C251.091 60.85 245.741 58.75 238.641 58.75C232.041 58.75 226.741 60.4 222.741 63.7C218.841 66.9 216.341 71.55 215.241 77.65L207.441 77.05C208.841 69.15 212.191 62.95 217.491 58.45C222.891 53.95 229.941 51.7 238.641 51.7C247.741 51.7 254.791 54.45 259.791 59.95C264.791 65.35 267.291 73.4 267.291 84.1V117.55C267.291 121.05 267.841 123.4 268.941 124.6C270.041 125.7 271.641 126.25 273.741 126.25H278.391V133C277.991 133.1 277.191 133.15 275.991 133.15C274.791 133.25 273.741 133.3 272.841 133.3C270.141 133.3 267.791 132.8 265.791 131.8C263.891 130.7 262.441 128.9 261.441 126.4C260.441 123.8 259.941 120.15 259.941 115.45H261.591C260.491 118.85 258.541 122.05 255.741 125.05C253.041 128.05 249.641 130.45 245.541 132.25C241.441 133.95 236.891 134.8 231.891 134.8ZM232.191 128.05C237.991 128.05 242.941 126.95 247.041 124.75C251.241 122.45 254.441 119.35 256.641 115.45C258.941 111.55 260.091 107.1 260.091 102.1V91.45L232.191 97C226.191 98.2 221.591 100.05 218.391 102.55C215.191 105.05 213.591 108.45 213.591 112.75C213.591 117.65 215.191 121.45 218.391 124.15C221.691 126.75 226.291 128.05 232.191 128.05ZM333.533 133V53.5H340.733V133H333.533ZM300.833 133V126.55H368.933V133H300.833ZM302.333 59.95V53.5H340.733V59.95H302.333ZM332.933 39.55V27.7H340.733V39.55H332.933ZM391.374 133V53.5H398.124L398.424 74.8L397.374 74.35C398.074 69.35 399.774 65.2 402.474 61.9C405.174 58.5 408.524 55.95 412.524 54.25C416.524 52.55 420.774 51.7 425.274 51.7C431.274 51.7 436.274 53.05 440.274 55.75C444.274 58.45 447.274 62.1 449.274 66.7C451.274 71.2 452.274 76.25 452.274 81.85V133H445.074V85.45C445.074 77.25 443.374 70.7 439.974 65.8C436.674 60.9 431.274 58.45 423.774 58.45C418.674 58.45 414.224 59.6 410.424 61.9C406.724 64.1 403.824 67.25 401.724 71.35C399.624 75.35 398.574 80.05 398.574 85.45V133H391.374ZM507.266 134.8C499.366 134.8 493.066 132.15 488.366 126.85C483.666 121.45 481.316 114.05 481.316 104.65V53.5H488.516V102.25C488.516 110.85 490.266 117.3 493.766 121.6C497.366 125.9 502.516 128.05 509.216 128.05C516.616 128.05 522.466 125.65 526.766 120.85C531.166 115.95 533.366 109.35 533.366 101.05V53.5H540.566V133H533.966L533.666 112L534.866 112.3C533.766 119.4 530.766 124.95 525.866 128.95C521.066 132.85 514.866 134.8 507.266 134.8ZM563.757 133V53.5H570.357L570.657 74.35L569.457 74.05C570.557 66.85 572.557 61.35 575.457 57.55C578.457 53.65 582.407 51.7 587.307 51.7C592.507 51.7 596.457 53.75 599.157 57.85C601.857 61.95 603.507 68.05 604.107 76.15H602.457C603.557 68.15 605.757 62.1 609.057 58C612.357 53.8 616.607 51.7 621.807 51.7C627.907 51.7 632.407 53.95 635.307 58.45C638.207 62.85 639.657 70.05 639.657 80.05V133H632.457V80.8C632.457 72.7 631.457 66.95 629.457 63.55C627.457 60.15 624.357 58.45 620.157 58.45C617.457 58.45 614.957 59.45 612.657 61.45C610.457 63.35 608.657 66.1 607.257 69.7C605.957 73.3 605.307 77.45 605.307 82.15V133H598.107V82C598.107 74.3 597.057 68.45 594.957 64.45C592.957 60.45 589.807 58.45 585.507 58.45C582.807 58.45 580.357 59.45 578.157 61.45C575.957 63.45 574.207 66.25 572.907 69.85C571.607 73.35 570.957 77.45 570.957 82.15V133H563.757Z" fill="white"/>
<path d="M143.75 133H142.75V134H143.75V133ZM143.75 53.5V52.5H142.75V53.5H143.75ZM149.6 53.5L150.599 53.4613L150.562 52.5H149.6V53.5ZM150.5 76.75L150.021 77.6279L151.567 78.4713L151.499 76.7113L150.5 76.75ZM148.85 75.85L147.873 75.6387L147.715 76.3697L148.371 76.7279L148.85 75.85ZM156.35 59.2L155.614 58.5225L155.614 58.5234L156.35 59.2ZM186.05 53.5H187.05V52.5H186.05V53.5ZM186.05 60.25V61.25H187.05V60.25H186.05ZM160.1 63.55L160.687 64.36L160.691 64.3564L160.1 63.55ZM150.95 133V134H151.95V133H150.95ZM121.55 133H120.55V134H121.55V133ZM121.55 126.55V125.55H120.55V126.55H121.55ZM177.05 126.55H178.05V125.55H177.05V126.55ZM177.05 133V134H178.05V133H177.05ZM121.55 59.95H120.55V60.95H121.55V59.95ZM121.55 53.5V52.5H120.55V53.5H121.55ZM147.5 53.5H148.5V52.5H147.5V53.5ZM147.5 59.95V60.95H148.5V59.95H147.5ZM143.75 133H144.75V53.5H143.75H142.75V133H143.75ZM143.75 53.5V54.5H149.6V53.5V52.5H143.75V53.5ZM149.6 53.5L148.601 53.5387L149.501 76.7887L150.5 76.75L151.499 76.7113L150.599 53.4613L149.6 53.5ZM150.5 76.75L150.979 75.8721L149.329 74.9721L148.85 75.85L148.371 76.7279L150.021 77.6279L150.5 76.75ZM148.85 75.85L149.827 76.0613C151.407 68.7536 153.853 63.3956 157.086 59.8766L156.35 59.2L155.614 58.5234C152.047 62.4044 149.493 68.1464 147.873 75.6387L148.85 75.85ZM156.35 59.2L157.086 59.8775C160.353 56.3304 165.008 54.5 171.2 54.5V53.5V52.5C164.592 52.5 159.347 54.4696 155.614 58.5225L156.35 59.2ZM171.2 53.5V54.5H186.05V53.5V52.5H171.2V53.5ZM186.05 53.5H185.05V60.25H186.05H187.05V53.5H186.05ZM186.05 60.25V59.25H170.6V60.25V61.25H186.05V60.25ZM170.6 60.25V59.25C166.404 59.25 162.693 60.4081 159.509 62.7436L160.1 63.55L160.691 64.3564C163.507 62.2918 166.796 61.25 170.6 61.25V60.25ZM160.1 63.55L159.513 62.7401C156.457 64.9536 154.1 67.9494 152.436 71.6939L153.35 72.1L154.264 72.5061C155.8 69.0506 157.943 66.3464 160.687 64.3599L160.1 63.55ZM153.35 72.1L152.436 71.6939C150.772 75.4387 149.95 79.6299 149.95 84.25H150.95H151.95C151.95 79.8701 152.728 75.9613 154.264 72.5061L153.35 72.1ZM150.95 84.25H149.95V133H150.95H151.95V84.25H150.95ZM150.95 133V132H143.75V133V134H150.95V133ZM121.55 133H122.55V126.55H121.55H120.55V133H121.55ZM121.55 126.55V127.55H177.05V126.55V125.55H121.55V126.55ZM177.05 126.55H176.05V133H177.05H178.05V126.55H177.05ZM177.05 133V132H121.55V133V134H177.05V133ZM121.55 59.95H122.55V53.5H121.55H120.55V59.95H121.55ZM121.55 53.5V54.5H147.5V53.5V52.5H121.55V53.5ZM147.5 53.5H146.5V59.95H147.5H148.5V53.5H147.5ZM147.5 59.95V58.95H121.55V59.95V60.95H147.5V59.95ZM218.391 132.25L217.972 133.158L217.982 133.162L217.992 133.167L218.391 132.25ZM209.241 124.75L208.398 125.287L208.407 125.302L208.417 125.317L209.241 124.75ZM212.541 98.5L211.898 97.7346L211.889 97.742L212.541 98.5ZM230.541 90.85L230.723 91.8335L230.736 91.831L230.541 90.85ZM260.091 85L260.286 85.981L261.091 85.8214V85H260.091ZM254.691 65.05L253.932 65.7008L253.94 65.7098L254.691 65.05ZM222.741 63.7L223.376 64.4731L223.378 64.4714L222.741 63.7ZM215.241 77.65L215.165 78.6471L216.065 78.7163L216.226 77.8275L215.241 77.65ZM207.441 77.05L206.457 76.8755L206.264 77.9624L207.365 78.0471L207.441 77.05ZM217.491 58.45L216.851 57.6817L216.844 57.6877L217.491 58.45ZM259.791 59.95L259.051 60.6227L259.058 60.6294L259.791 59.95ZM268.941 124.6L268.204 125.276L268.219 125.292L268.234 125.307L268.941 124.6ZM278.391 126.25H279.391V125.25H278.391V126.25ZM278.391 133L278.634 133.97L279.391 133.781V133H278.391ZM275.991 133.15V132.15H275.95L275.908 132.153L275.991 133.15ZM265.791 131.8L265.29 132.665L265.317 132.681L265.344 132.694L265.791 131.8ZM261.441 126.4L260.508 126.759L260.513 126.771L261.441 126.4ZM259.941 115.45V114.45H258.941V115.45H259.941ZM261.591 115.45L262.543 115.758L262.966 114.45H261.591V115.45ZM255.741 125.05L255.01 124.368L255.004 124.374L254.998 124.381L255.741 125.05ZM245.541 132.25L245.924 133.174L245.934 133.17L245.943 133.166L245.541 132.25ZM247.041 124.75L247.514 125.631L247.522 125.627L247.041 124.75ZM256.641 115.45L255.78 114.942L255.775 114.95L255.77 114.959L256.641 115.45ZM260.091 91.45H261.091V90.2315L259.896 90.4692L260.091 91.45ZM232.191 97L231.996 96.0192L231.995 96.0194L232.191 97ZM218.391 102.55L217.776 101.762L217.776 101.762L218.391 102.55ZM218.391 124.15L217.747 124.914L217.759 124.925L217.773 124.935L218.391 124.15ZM231.891 134.8V133.8C226.902 133.8 222.542 132.969 218.791 131.333L218.391 132.25L217.992 133.167C222.04 134.931 226.681 135.8 231.891 135.8V134.8ZM218.391 132.25L218.81 131.342C215.056 129.609 212.153 127.22 210.065 124.183L209.241 124.75L208.417 125.317C210.73 128.68 213.927 131.291 217.972 133.158L218.391 132.25ZM209.241 124.75L210.085 124.213C208.097 121.089 207.091 117.479 207.091 113.35H206.091H205.091C205.091 117.821 206.186 121.811 208.398 125.287L209.241 124.75ZM206.091 113.35H207.091C207.091 107.411 209.137 102.749 213.194 99.258L212.541 98.5L211.889 97.742C207.346 101.651 205.091 106.889 205.091 113.35H206.091ZM212.541 98.5L213.185 99.2654C217.414 95.7088 223.237 93.2125 230.723 91.8335L230.541 90.85L230.36 89.8665C222.646 91.2875 216.468 93.8912 211.898 97.7346L212.541 98.5ZM230.541 90.85L230.736 91.831L260.286 85.981L260.091 85L259.897 84.019L230.347 89.869L230.541 90.85ZM260.091 85H261.091C261.091 75.711 259.282 68.7621 255.443 64.3902L254.691 65.05L253.94 65.7098C257.301 69.5378 259.091 75.8889 259.091 85H260.091ZM254.691 65.05L255.451 64.3992C251.61 59.918 245.944 57.75 238.641 57.75V58.75V59.75C245.538 59.75 250.573 61.782 253.932 65.7008L254.691 65.05ZM238.641 58.75V57.75C231.874 57.75 226.328 59.4443 222.105 62.9286L222.741 63.7L223.378 64.4714C227.154 61.3557 232.209 59.75 238.641 59.75V58.75ZM222.741 63.7L222.107 62.9269C217.984 66.3099 215.389 71.1942 214.257 77.4725L215.241 77.65L216.226 77.8275C217.293 71.9058 219.699 67.4901 223.376 64.4731L222.741 63.7ZM215.241 77.65L215.318 76.6529L207.518 76.0529L207.441 77.05L207.365 78.0471L215.165 78.6471L215.241 77.65ZM207.441 77.05L208.426 77.2245C209.792 69.5165 213.043 63.5388 218.139 59.2123L217.491 58.45L216.844 57.6877C211.34 62.3611 207.891 68.7835 206.457 76.8755L207.441 77.05ZM217.491 58.45L218.132 59.2182C223.312 54.901 230.118 52.7 238.641 52.7V51.7V50.7C229.765 50.7 222.471 52.999 216.851 57.6818L217.491 58.45ZM238.641 51.7V52.7C247.528 52.7 254.282 55.3768 259.051 60.6227L259.791 59.95L260.531 59.2773C255.3 53.5232 247.955 50.7 238.641 50.7V51.7ZM259.791 59.95L259.058 60.6294C263.823 65.7756 266.291 73.5388 266.291 84.1H267.291H268.291C268.291 73.2612 265.76 64.9244 260.525 59.2706L259.791 59.95ZM267.291 84.1H266.291V117.55H267.291H268.291V84.1H267.291ZM267.291 117.55H266.291C266.291 119.346 266.432 120.891 266.73 122.165C267.027 123.433 267.496 124.503 268.204 125.276L268.941 124.6L269.679 123.924C269.287 123.497 268.931 122.792 268.678 121.71C268.426 120.634 268.291 119.254 268.291 117.55H267.291ZM268.941 124.6L268.234 125.307C269.58 126.653 271.472 127.25 273.741 127.25V126.25V125.25C271.811 125.25 270.503 124.747 269.649 123.893L268.941 124.6ZM273.741 126.25V127.25H278.391V126.25V125.25H273.741V126.25ZM278.391 126.25H277.391V133H278.391H279.391V126.25H278.391ZM278.391 133L278.149 132.03C277.887 132.095 277.21 132.15 275.991 132.15V133.15V134.15C277.173 134.15 278.095 134.105 278.634 133.97L278.391 133ZM275.991 133.15L275.908 132.153C274.727 132.252 273.706 132.3 272.841 132.3V133.3V134.3C273.777 134.3 274.855 134.248 276.074 134.147L275.991 133.15ZM272.841 133.3V132.3C270.265 132.3 268.074 131.823 266.239 130.906L265.791 131.8L265.344 132.694C267.509 133.777 270.018 134.3 272.841 134.3V133.3ZM265.791 131.8L266.292 130.935C264.627 129.97 263.306 128.369 262.37 126.029L261.441 126.4L260.513 126.771C261.577 129.431 263.156 131.43 265.29 132.665L265.791 131.8ZM261.441 126.4L262.375 126.041C261.439 123.608 260.941 120.1 260.941 115.45H259.941H258.941C258.941 120.2 259.444 123.992 260.508 126.759L261.441 126.4ZM259.941 115.45V116.45H261.591V115.45V114.45H259.941V115.45ZM261.591 115.45L260.64 115.142C259.591 118.383 257.725 121.459 255.01 124.368L255.741 125.05L256.472 125.732C259.358 122.641 261.391 119.317 262.543 115.758L261.591 115.45ZM255.741 125.05L254.998 124.381C252.403 127.264 249.124 129.585 245.139 131.334L245.541 132.25L245.943 133.166C250.159 131.315 253.68 128.836 256.485 125.719L255.741 125.05ZM245.541 132.25L245.158 131.326C241.194 132.97 236.777 133.8 231.891 133.8V134.8V135.8C237.006 135.8 241.689 134.93 245.924 133.174L245.541 132.25ZM232.191 128.05V129.05C238.116 129.05 243.237 127.926 247.514 125.631L247.041 124.75L246.569 123.869C242.646 125.974 237.866 127.05 232.191 127.05V128.05ZM247.041 124.75L247.522 125.627C251.874 123.244 255.214 120.015 257.512 115.941L256.641 115.45L255.77 114.959C253.669 118.685 250.609 121.656 246.561 123.873L247.041 124.75ZM256.641 115.45L257.503 115.958C259.903 111.888 261.091 107.26 261.091 102.1H260.091H259.091C259.091 106.94 257.98 111.212 255.78 114.942L256.641 115.45ZM260.091 102.1H261.091V91.45H260.091H259.091V102.1H260.091ZM260.091 91.45L259.896 90.4692L231.996 96.0192L232.191 97L232.387 97.9808L260.287 92.4308L260.091 91.45ZM232.191 97L231.995 96.0194C225.913 97.2358 221.145 99.1296 217.776 101.762L218.391 102.55L219.007 103.338C222.038 100.97 226.47 99.1642 232.388 97.9806L232.191 97ZM218.391 102.55L217.776 101.762C214.317 104.464 212.591 108.163 212.591 112.75H213.591H214.591C214.591 108.737 216.066 105.636 219.007 103.338L218.391 102.55ZM213.591 112.75H212.591C212.591 117.889 214.282 121.991 217.747 124.914L218.391 124.15L219.036 123.386C216.101 120.909 214.591 117.411 214.591 112.75H213.591ZM218.391 124.15L217.773 124.935C221.308 127.721 226.156 129.05 232.191 129.05V128.05V127.05C226.427 127.05 222.075 125.779 219.01 123.365L218.391 124.15ZM333.533 133H332.533V134H333.533V133ZM333.533 53.5V52.5H332.533V53.5H333.533ZM340.733 53.5H341.733V52.5H340.733V53.5ZM340.733 133V134H341.733V133H340.733ZM300.833 133H299.833V134H300.833V133ZM300.833 126.55V125.55H299.833V126.55H300.833ZM368.933 126.55H369.933V125.55H368.933V126.55ZM368.933 133V134H369.933V133H368.933ZM302.333 59.95H301.333V60.95H302.333V59.95ZM302.333 53.5V52.5H301.333V53.5H302.333ZM340.733 53.5H341.733V52.5H340.733V53.5ZM340.733 59.95V60.95H341.733V59.95H340.733ZM332.933 39.55H331.933V40.55H332.933V39.55ZM332.933 27.7V26.7H331.933V27.7H332.933ZM340.733 27.7H341.733V26.7H340.733V27.7ZM340.733 39.55V40.55H341.733V39.55H340.733ZM333.533 133H334.533V53.5H333.533H332.533V133H333.533ZM333.533 53.5V54.5H340.733V53.5V52.5H333.533V53.5ZM340.733 53.5H339.733V133H340.733H341.733V53.5H340.733ZM340.733 133V132H333.533V133V134H340.733V133ZM300.833 133H301.833V126.55H300.833H299.833V133H300.833ZM300.833 126.55V127.55H368.933V126.55V125.55H300.833V126.55ZM368.933 126.55H367.933V133H368.933H369.933V126.55H368.933ZM368.933 133V132H300.833V133V134H368.933V133ZM302.333 59.95H303.333V53.5H302.333H301.333V59.95H302.333ZM302.333 53.5V54.5H340.733V53.5V52.5H302.333V53.5ZM340.733 53.5H339.733V59.95H340.733H341.733V53.5H340.733ZM340.733 59.95V58.95H302.333V59.95V60.95H340.733V59.95ZM332.933 39.55H333.933V27.7H332.933H331.933V39.55H332.933ZM332.933 27.7V28.7H340.733V27.7V26.7H332.933V27.7ZM340.733 27.7H339.733V39.55H340.733H341.733V27.7H340.733ZM340.733 39.55V38.55H332.933V39.55V40.55H340.733V39.55ZM391.374 133H390.374V134H391.374V133ZM391.374 53.5V52.5H390.374V53.5H391.374ZM398.124 53.5L399.124 53.4859L399.11 52.5H398.124V53.5ZM398.424 74.8L398.03 75.7191L399.446 76.3258L399.424 74.7859L398.424 74.8ZM397.374 74.35L396.384 74.2113L396.278 74.9681L396.98 75.2691L397.374 74.35ZM402.474 61.9L403.248 62.5332L403.253 62.5276L403.257 62.5219L402.474 61.9ZM412.524 54.25L412.133 53.3297L412.133 53.3297L412.524 54.25ZM440.274 55.75L439.715 56.5788L439.715 56.5788L440.274 55.75ZM449.274 66.7L448.357 67.0987L448.36 67.1061L449.274 66.7ZM452.274 133V134H453.274V133H452.274ZM445.074 133H444.074V134H445.074V133ZM439.974 65.8L439.145 66.3587L439.153 66.3701L439.974 65.8ZM410.424 61.9L410.935 62.7596L410.942 62.7555L410.424 61.9ZM401.724 71.35L402.61 71.8149L402.614 71.8059L401.724 71.35ZM398.574 133V134H399.574V133H398.574ZM391.374 133H392.374V53.5H391.374H390.374V133H391.374ZM391.374 53.5V54.5H398.124V53.5V52.5H391.374V53.5ZM398.124 53.5L397.124 53.5141L397.424 74.8141L398.424 74.8L399.424 74.7859L399.124 53.4859L398.124 53.5ZM398.424 74.8L398.818 73.8809L397.768 73.4309L397.374 74.35L396.98 75.2691L398.03 75.7191L398.424 74.8ZM397.374 74.35L398.365 74.4886C399.044 69.6365 400.684 65.6671 403.248 62.5332L402.474 61.9L401.7 61.2668C398.864 64.7329 397.105 69.0635 396.384 74.2113L397.374 74.35ZM402.474 61.9L403.257 62.5219C405.853 59.2526 409.069 56.8052 412.915 55.1703L412.524 54.25L412.133 53.3297C407.98 55.0948 404.495 57.7474 401.691 61.2781L402.474 61.9ZM412.524 54.25L412.915 55.1703C416.787 53.5248 420.904 52.7 425.274 52.7V51.7V50.7C420.645 50.7 416.261 51.5752 412.133 53.3297L412.524 54.25ZM425.274 51.7V52.7C431.124 52.7 435.916 54.0149 439.715 56.5788L440.274 55.75L440.834 54.9211C436.632 52.0851 431.425 50.7 425.274 50.7V51.7ZM440.274 55.75L439.715 56.5788C443.551 59.1681 446.43 62.666 448.357 67.0987L449.274 66.7L450.191 66.3013C448.119 61.534 444.998 57.7319 440.834 54.9211L440.274 55.75ZM449.274 66.7L448.36 67.1061C450.296 71.4619 451.274 76.3708 451.274 81.85H452.274H453.274C453.274 76.1292 452.252 70.9381 450.188 66.2939L449.274 66.7ZM452.274 81.85H451.274V133H452.274H453.274V81.85H452.274ZM452.274 133V132H445.074V133V134H452.274V133ZM445.074 133H446.074V85.45H445.074H444.074V133H445.074ZM445.074 85.45H446.074C446.074 77.1206 444.348 70.3495 440.796 65.2299L439.974 65.8L439.153 66.3701C442.4 71.0505 444.074 77.3794 444.074 85.45H445.074ZM439.974 65.8L440.804 65.2414C437.268 59.9911 431.506 57.45 423.774 57.45V58.45V59.45C431.042 59.45 436.081 61.8089 439.145 66.3586L439.974 65.8ZM423.774 58.45V57.45C418.519 57.45 413.885 58.6367 409.906 61.0445L410.424 61.9L410.942 62.7555C414.564 60.5633 418.829 59.45 423.774 59.45V58.45ZM410.424 61.9L409.913 61.0405C406.04 63.3435 403.014 66.6388 400.834 70.8941L401.724 71.35L402.614 71.8059C404.635 67.8612 407.409 64.8565 410.935 62.7595L410.424 61.9ZM401.724 71.35L400.839 70.8852C398.65 75.054 397.574 79.9195 397.574 85.45H398.574H399.574C399.574 80.1805 400.598 75.646 402.61 71.8148L401.724 71.35ZM398.574 85.45H397.574V133H398.574H399.574V85.45H398.574ZM398.574 133V132H391.374V133V134H398.574V133ZM488.366 126.85L487.611 127.507L487.617 127.513L488.366 126.85ZM481.316 53.5V52.5H480.316V53.5H481.316ZM488.516 53.5H489.516V52.5H488.516V53.5ZM493.766 121.6L492.99 122.231L492.999 122.242L493.766 121.6ZM526.766 120.85L526.022 120.182L526.021 120.183L526.766 120.85ZM533.366 53.5V52.5H532.366V53.5H533.366ZM540.566 53.5H541.566V52.5H540.566V53.5ZM540.566 133V134H541.566V133H540.566ZM533.966 133L532.966 133.014L532.98 134H533.966V133ZM533.666 112L533.908 111.03L532.647 110.715L532.666 112.014L533.666 112ZM534.866 112.3L535.854 112.453L535.994 111.551L535.108 111.33L534.866 112.3ZM525.866 128.95L526.496 129.726L526.498 129.725L525.866 128.95ZM507.266 134.8V133.8C499.615 133.8 493.601 131.246 489.114 126.187L488.366 126.85L487.617 127.513C492.53 133.054 499.116 135.8 507.266 135.8V134.8ZM488.366 126.85L489.12 126.193C484.622 121.026 482.316 113.886 482.316 104.65H481.316H480.316C480.316 114.214 482.709 121.874 487.611 127.507L488.366 126.85ZM481.316 104.65H482.316V53.5H481.316H480.316V104.65H481.316ZM481.316 53.5V54.5H488.516V53.5V52.5H481.316V53.5ZM488.516 53.5H487.516V102.25H488.516H489.516V53.5H488.516ZM488.516 102.25H487.516C487.516 110.96 489.284 117.678 492.99 122.231L493.766 121.6L494.541 120.969C491.247 116.922 489.516 110.74 489.516 102.25H488.516ZM493.766 121.6L492.999 122.242C496.826 126.814 502.283 129.05 509.216 129.05V128.05V127.05C502.748 127.05 497.905 124.986 494.532 120.958L493.766 121.6ZM509.216 128.05V129.05C516.853 129.05 522.992 126.561 527.51 121.517L526.766 120.85L526.021 120.183C521.939 124.739 516.378 127.05 509.216 127.05V128.05ZM526.766 120.85L527.51 121.518C532.114 116.39 534.366 109.53 534.366 101.05H533.366H532.366C532.366 109.17 530.217 115.51 526.022 120.182L526.766 120.85ZM533.366 101.05H534.366V53.5H533.366H532.366V101.05H533.366ZM533.366 53.5V54.5H540.566V53.5V52.5H533.366V53.5ZM540.566 53.5H539.566V133H540.566H541.566V53.5H540.566ZM540.566 133V132H533.966V133V134H540.566V133ZM533.966 133L534.966 132.986L534.666 111.986L533.666 112L532.666 112.014L532.966 133.014L533.966 133ZM533.666 112L533.423 112.97L534.623 113.27L534.866 112.3L535.108 111.33L533.908 111.03L533.666 112ZM534.866 112.3L533.877 112.147C532.81 119.038 529.916 124.353 525.233 128.175L525.866 128.95L526.498 129.725C531.615 125.547 534.722 119.762 535.854 112.453L534.866 112.3ZM525.866 128.95L525.235 128.174C520.651 131.898 514.69 133.8 507.266 133.8V134.8V135.8C515.041 135.8 521.48 133.802 526.496 129.726L525.866 128.95ZM563.757 133H562.757V134H563.757V133ZM563.757 53.5V52.5H562.757V53.5H563.757ZM570.357 53.5L571.357 53.4856L571.343 52.5H570.357V53.5ZM570.657 74.35L570.414 75.3201L571.676 75.6354L571.657 74.3356L570.657 74.35ZM569.457 74.05L568.469 73.899L568.331 74.7993L569.214 75.0201L569.457 74.05ZM575.457 57.55L574.664 56.9403L574.662 56.9433L575.457 57.55ZM599.157 57.85L599.992 57.3L599.992 57.3L599.157 57.85ZM604.107 76.15V77.15H605.184L605.104 76.0761L604.107 76.15ZM602.457 76.15L601.466 76.0138L601.31 77.15H602.457V76.15ZM609.057 58L609.836 58.6271L609.843 58.6178L609.057 58ZM635.307 58.45L634.466 58.9917L634.472 59.0003L635.307 58.45ZM639.657 133V134H640.657V133H639.657ZM632.457 133H631.457V134H632.457V133ZM629.457 63.55L630.319 63.043L630.319 63.043L629.457 63.55ZM612.657 61.45L613.311 62.2068L613.313 62.2046L612.657 61.45ZM607.257 69.7L606.325 69.3376L606.321 69.3489L606.316 69.3604L607.257 69.7ZM605.307 133V134H606.307V133H605.307ZM598.107 133H597.107V134H598.107V133ZM594.957 64.45L594.063 64.8972L594.067 64.9061L594.072 64.9148L594.957 64.45ZM578.157 61.45L577.484 60.7101L577.484 60.7101L578.157 61.45ZM572.907 69.85L573.844 70.1982L573.848 70.1896L572.907 69.85ZM570.957 133V134H571.957V133H570.957ZM563.757 133H564.757V53.5H563.757H562.757V133H563.757ZM563.757 53.5V54.5H570.357V53.5V52.5H563.757V53.5ZM570.357 53.5L569.357 53.5144L569.657 74.3644L570.657 74.35L571.657 74.3356L571.357 53.4856L570.357 53.5ZM570.657 74.35L570.9 73.3799L569.7 73.0799L569.457 74.05L569.214 75.0201L570.414 75.3201L570.657 74.35ZM569.457 74.05L570.446 74.201C571.532 67.0872 573.493 61.7715 576.252 58.1567L575.457 57.55L574.662 56.9433C571.621 60.9285 569.582 66.6128 568.469 73.899L569.457 74.05ZM575.457 57.55L576.25 58.1597C579.061 54.5046 582.719 52.7 587.307 52.7V51.7V50.7C582.095 50.7 577.853 52.7954 574.664 56.9403L575.457 57.55ZM587.307 51.7V52.7C592.194 52.7 595.82 54.6002 598.322 58.4L599.157 57.85L599.992 57.3C597.094 52.8998 592.82 50.7 587.307 50.7V51.7ZM599.157 57.85L598.322 58.4C600.886 62.2932 602.515 68.1951 603.11 76.2239L604.107 76.15L605.104 76.0761C604.499 67.9049 602.828 61.6068 599.992 57.3L599.157 57.85ZM604.107 76.15V75.15H602.457V76.15V77.15H604.107V76.15ZM602.457 76.15L603.448 76.2862C604.535 68.3775 606.695 62.5294 609.836 58.627L609.057 58L608.278 57.373C604.819 61.6706 602.579 67.9224 601.466 76.0138L602.457 76.15ZM609.057 58L609.843 58.6178C612.96 54.6515 616.923 52.7 621.807 52.7V51.7V50.7C616.291 50.7 611.754 52.9485 608.271 57.3822L609.057 58ZM621.807 51.7V52.7C627.623 52.7 631.779 54.8212 634.466 58.9917L635.307 58.45L636.148 57.9083C633.035 53.0788 628.191 50.7 621.807 50.7V51.7ZM635.307 58.45L634.472 59.0003C637.205 63.1461 638.657 70.097 638.657 80.05H639.657H640.657C640.657 70.003 639.21 62.5539 636.142 57.8997L635.307 58.45ZM639.657 80.05H638.657V133H639.657H640.657V80.05H639.657ZM639.657 133V132H632.457V133V134H639.657V133ZM632.457 133H633.457V80.8H632.457H631.457V133H632.457ZM632.457 80.8H633.457C633.457 72.6732 632.464 66.6889 630.319 63.043L629.457 63.55L628.595 64.057C630.45 67.2111 631.457 72.7268 631.457 80.8H632.457ZM629.457 63.55L630.319 63.043C628.126 59.3142 624.683 57.45 620.157 57.45V58.45V59.45C624.031 59.45 626.789 60.9858 628.595 64.057L629.457 63.55ZM620.157 58.45V57.45C617.185 57.45 614.458 58.5589 612.001 60.6954L612.657 61.45L613.313 62.2046C615.456 60.3411 617.729 59.45 620.157 59.45V58.45ZM612.657 61.45L612.003 60.6932C609.646 62.7292 607.766 65.6334 606.325 69.3376L607.257 69.7L608.189 70.0624C609.549 66.5666 611.268 63.9708 613.311 62.2068L612.657 61.45ZM607.257 69.7L606.316 69.3604C604.969 73.0909 604.307 77.3597 604.307 82.15H605.307H606.307C606.307 77.5403 606.945 73.5091 608.198 70.0396L607.257 69.7ZM605.307 82.15H604.307V133H605.307H606.307V82.15H605.307ZM605.307 133V132H598.107V133V134H605.307V133ZM598.107 133H599.107V82H598.107H597.107V133H598.107ZM598.107 82H599.107C599.107 74.2375 598.053 68.1963 595.842 63.9852L594.957 64.45L594.072 64.9148C596.061 68.7037 597.107 74.3625 597.107 82H598.107ZM594.957 64.45L595.851 64.0028C594.786 61.8728 593.387 60.2209 591.631 59.1058C589.872 57.9893 587.817 57.45 585.507 57.45V58.45V59.45C587.497 59.45 589.167 59.9107 590.559 60.7942C591.952 61.6791 593.128 63.0272 594.063 64.8972L594.957 64.45ZM585.507 58.45V57.45C582.532 57.45 579.848 58.5611 577.484 60.7101L578.157 61.45L578.83 62.1899C580.866 60.3389 583.082 59.45 585.507 59.45V58.45ZM578.157 61.45L577.484 60.7101C575.134 62.8467 573.306 65.7999 571.966 69.5104L572.907 69.85L573.848 70.1896C575.108 66.7001 576.78 64.0533 578.83 62.1899L578.157 61.45ZM572.907 69.85L571.97 69.5018C570.619 73.1379 569.957 77.3606 569.957 82.15H570.957H571.957C571.957 77.5394 572.595 73.5621 573.844 70.1982L572.907 69.85ZM570.957 82.15H569.957V133H570.957H571.957V82.15H570.957ZM570.957 133V132H563.757V133V134H570.957V133Z" fill="#5DF7A4" mask="url(#path-1-outside-1_1193_5)"/>
<g clip-path="url(#clip0_1193_5)">
<path d="M44.5186 40.3728C47.2957 39.67 50.06 39.679 52.8193 40.3982L52.8232 40.3992C55.5906 41.0995 58.026 42.4991 60.1348 44.6082C62.2435 46.7174 63.6435 49.1534 64.3438 51.9216L64.3447 51.9255C65.0637 54.6855 65.0718 57.4504 64.3691 60.2283L64.3682 60.2312C63.6847 63.0156 62.2942 65.4591 60.1865 67.5671L54.8398 72.9158L54.4863 73.2693L54.8398 73.6228L62.7695 81.5544L63.123 81.908L63.4766 81.5544L68.8242 76.2058C70.933 74.0967 73.3596 72.6879 76.1094 71.9705L76.1104 71.9714C78.8876 71.2687 81.6517 71.2765 84.4111 71.9958L84.415 71.9968C87.1817 72.697 89.6255 74.1054 91.752 76.2322C93.8608 78.3414 95.2607 80.7774 95.9609 83.5457L95.9619 83.5486C96.6808 86.3079 96.6808 89.0636 95.9619 91.823L95.9609 91.8259C95.2607 94.594 93.8608 97.0302 91.752 99.1394C89.7583 101.133 87.4857 102.496 84.9297 103.235L84.417 103.374C81.656 104.06 78.8888 104.052 76.1094 103.348C73.3775 102.648 70.9589 101.249 68.8496 99.1394L63.5029 93.7908L63.1494 93.4373L62.7959 93.7908L54.8398 101.749L54.4863 102.102L54.8398 102.456L60.1865 107.804C62.2953 109.914 63.6851 112.34 64.3682 115.09L64.3691 115.092C65.072 117.87 65.0719 120.645 64.3691 123.424C63.6691 126.191 62.2612 128.636 60.1348 130.763C58.1747 132.724 55.9113 134.077 53.3398 134.83L52.8213 134.972C50.044 135.675 47.2705 135.675 44.4932 134.972H44.4941C41.7615 134.272 39.3422 132.874 37.2324 130.763V130.762L36.8418 130.36C35.0579 128.464 33.818 126.332 33.1143 123.959L32.9717 123.446C32.2697 120.669 32.2701 117.894 32.9727 115.117L32.9717 115.116C33.7065 112.347 35.1164 109.921 37.207 107.83L42.6055 102.43L42.959 102.077L42.6055 101.723L34.6748 93.7908L34.3213 93.4373L33.9678 93.7908L28.5693 99.1912C26.4794 101.281 24.0363 102.673 21.2334 103.374L21.2314 103.375C18.4534 104.078 15.6793 104.078 12.9014 103.375H12.9004C10.1506 102.657 7.72408 101.249 5.61523 99.1394C3.6373 97.1611 2.27575 94.903 1.52246 92.3611L1.37988 91.8484C0.677864 89.0708 0.678244 86.2967 1.38086 83.5193L1.37988 83.5183C2.09773 80.7319 3.49856 78.2966 5.58887 76.2058C7.71538 74.0789 10.1599 72.6716 12.9268 71.9714C15.7049 71.2684 18.4797 71.2684 21.2578 71.9714C24.0253 72.6719 26.4606 74.0713 28.5693 76.1804L33.9424 81.5544L34.2959 81.908L34.6494 81.5544L42.6055 73.5964L42.959 73.2429L42.6055 72.8894L37.2324 67.5154C35.1225 65.4051 33.714 62.9762 32.9971 60.2244C32.295 57.4462 32.2874 54.6812 32.9727 51.9216C33.6727 49.1542 35.0804 46.7097 37.207 44.5828C39.3157 42.4736 41.7508 41.0732 44.5186 40.3728ZM48.3818 108.208L42.9834 113.608C41.9434 114.648 41.2337 115.852 40.8652 117.216L40.8633 117.223C40.5157 118.596 40.5157 119.972 40.8633 121.344C41.214 122.729 41.9251 123.952 42.9834 125.01C44.0259 126.053 45.2413 126.755 46.624 127.105C47.9977 127.453 49.3676 127.445 50.7256 127.078L50.7246 127.077C52.1043 126.726 53.3176 126.026 54.3584 124.985C55.4149 123.928 56.1252 122.707 56.4766 121.326C56.8435 119.968 56.8529 118.597 56.5049 117.223H56.5039C56.1711 115.824 55.4787 114.6 54.4355 113.556L49.0889 108.208L48.7354 107.854L48.3818 108.208ZM48.3818 79.3748L40.4258 87.3318L40.0723 87.6853L40.4258 88.0388L48.3555 95.9714L48.71 96.325L49.0635 95.9714L57.0186 88.0134L57.3721 87.6599L57.0186 87.3064L49.0889 79.3748L48.7354 79.0212L48.3818 79.3748ZM19.1523 79.863C17.7804 79.5154 16.4043 79.5155 15.0322 79.863C13.648 80.2138 12.4237 80.9255 11.3652 81.9841C10.3253 83.0243 9.61544 84.2283 9.24707 85.5916L9.24512 85.5994C8.89753 86.9717 8.89752 88.3481 9.24512 89.7205L9.24707 89.7244C9.61459 91.1212 10.3228 92.3448 11.3652 93.3875C12.4066 94.429 13.6211 95.1295 15.002 95.4802V95.4812C16.3912 95.8467 17.7775 95.8559 19.1523 95.5076C20.5349 95.1571 21.7505 94.4555 22.793 93.4128L28.1914 88.0134L28.5449 87.6599L28.1914 87.3064L22.8184 81.9324C21.7749 80.889 20.5506 80.1958 19.1514 79.863H19.1523ZM79.5186 79.6023C78.4811 79.6023 77.4082 79.6841 76.7021 79.863L76.6992 79.864C75.3486 80.2156 74.1439 80.928 73.0879 81.9841L67.3867 87.6853L67.7402 88.0388L73.0879 93.3875C74.1278 94.4275 75.3315 95.137 76.6943 95.5056L76.7021 95.5076C77.409 95.6867 78.4807 95.7668 79.5146 95.7625C80.5474 95.7581 81.616 95.6684 82.3164 95.4792C83.6975 95.1279 84.919 94.4187 85.9756 93.3621C87.031 92.3065 87.7337 91.0937 88.0684 89.7283C88.4354 88.37 88.4436 86.999 88.0957 85.6248C87.7454 84.2421 87.0442 83.0266 86.002 81.9841C84.9435 80.9255 83.7193 80.2138 82.335 79.863C81.6288 79.6842 80.5558 79.6023 79.5186 79.6023ZM50.7441 48.2654C49.3734 47.9181 47.9985 47.9178 46.6279 48.2644C45.2577 48.5978 44.0417 49.3017 42.9834 50.3601C41.9434 51.4004 41.2256 52.6117 40.8398 53.989L40.8369 54.0017C40.5112 55.2882 40.4913 56.578 40.7764 57.865L40.8369 58.1228L40.8398 58.1345C41.2256 59.5119 41.9433 60.7232 42.9834 61.7634L48.3555 67.1375L48.71 67.491L49.0635 67.1375L54.4102 61.7898C55.4677 60.7323 56.1711 59.517 56.5049 58.1482C56.8314 56.859 56.843 55.5598 56.542 54.2576L56.4775 53.9968C56.1268 52.6159 55.426 51.4016 54.3848 50.3601C53.3422 49.3175 52.1268 48.6158 50.7441 48.2654Z" fill="white" stroke="#5DF7A4"/>
</g>
<defs>
<clipPath id="clip0_1193_5">
<rect width="97" height="97" fill="white" transform="translate(0 39)"/>
</clipPath>
</defs>
</svg>
